<svg width="20" height="20" viewBox="0 0 20 20" fill="none" xmlns="http://www.w3.org/2000/svg">
<path fill-rule="evenodd" clip-rule="evenodd" d="M4.16667 3.95825C3.59137 3.95825 3.125 4.42462 3.125 4.99992V16.6666C3.125 17.2419 3.59137 17.7083 4.16667 17.7083H15.8333C16.4086 17.7083 16.875 17.2419 16.875 16.6666V4.99992C16.875 4.42462 16.4086 3.95825 15.8333 3.95825H4.16667ZM1.875 4.99992C1.875 3.73427 2.90101 2.70825 4.16667 2.70825H15.8333C17.099 2.70825 18.125 3.73427 18.125 4.99992V16.6666C18.125 17.9322 17.099 18.9583 15.8333 18.9583H4.16667C2.90101 18.9583 1.875 17.9322 1.875 16.6666V4.99992Z" fill="#EF4827"/>
<path fill-rule="evenodd" clip-rule="evenodd" d="M13.3334 1.04175C13.6786 1.04175 13.9584 1.32157 13.9584 1.66675V5.00008C13.9584 5.34526 13.6786 5.62508 13.3334 5.62508C12.9882 5.62508 12.7084 5.34526 12.7084 5.00008V1.66675C12.7084 1.32157 12.9882 1.04175 13.3334 1.04175Z" fill="#EF4827"/>
<path fill-rule="evenodd" clip-rule="evenodd" d="M6.66663 1.04175C7.0118 1.04175 7.29163 1.32157 7.29163 1.66675V5.00008C7.29163 5.34526 7.0118 5.62508 6.66663 5.62508C6.32145 5.62508 6.04163 5.34526 6.04163 5.00008V1.66675C6.04163 1.32157 6.32145 1.04175 6.66663 1.04175Z" fill="#EF4827"/>
<path fill-rule="evenodd" clip-rule="evenodd" d="M1.875 8.33325C1.875 7.98807 2.15482 7.70825 2.5 7.70825H17.5C17.8452 7.70825 18.125 7.98807 18.125 8.33325C18.125 8.67843 17.8452 8.95825 17.5 8.95825H2.5C2.15482 8.95825 1.875 8.67843 1.875 8.33325Z" fill="#EF4827"/>
</svg>
