<svg width="448" height="180" viewBox="0 0 448 180" fill="none" xmlns="http://www.w3.org/2000/svg">
<path opacity="0.4" d="M11.2371 173.14H7.58914L6.91714 175H5.76514L8.78914 166.684H10.0491L13.0611 175H11.9091L11.2371 173.14ZM10.9251 172.252L9.41314 168.028L7.90114 172.252H10.9251ZM15.4711 169.636C15.6871 169.26 16.0071 168.948 16.4311 168.7C16.8631 168.444 17.3631 168.316 17.9311 168.316C18.5151 168.316 19.0431 168.456 19.5151 168.736C19.9951 169.016 20.3711 169.412 20.6431 169.924C20.9151 170.428 21.0511 171.016 21.0511 171.688C21.0511 172.352 20.9151 172.944 20.6431 173.464C20.3711 173.984 19.9951 174.388 19.5151 174.676C19.0431 174.964 18.5151 175.108 17.9311 175.108C17.3711 175.108 16.8751 174.984 16.4431 174.736C16.0191 174.48 15.6951 174.164 15.4711 173.788V178.12H14.3791V168.424H15.4711V169.636ZM19.9351 171.688C19.9351 171.192 19.8351 170.76 19.6351 170.392C19.4351 170.024 19.1631 169.744 18.8191 169.552C18.4831 169.36 18.1111 169.264 17.7031 169.264C17.3031 169.264 16.9311 169.364 16.5871 169.564C16.2511 169.756 15.9791 170.04 15.7711 170.416C15.5711 170.784 15.4711 171.212 15.4711 171.7C15.4711 172.196 15.5711 172.632 15.7711 173.008C15.9791 173.376 16.2511 173.66 16.5871 173.86C16.9311 174.052 17.3031 174.148 17.7031 174.148C18.1111 174.148 18.4831 174.052 18.8191 173.86C19.1631 173.66 19.4351 173.376 19.6351 173.008C19.8351 172.632 19.9351 172.192 19.9351 171.688ZM23.5805 169.492C23.7725 169.116 24.0445 168.824 24.3965 168.616C24.7565 168.408 25.1925 168.304 25.7045 168.304V169.432H25.4165C24.1925 169.432 23.5805 170.096 23.5805 171.424V175H22.4885V168.424H23.5805V169.492ZM29.6962 167.32V166.324H31.9522V175H30.8482V167.32H29.6962ZM33.564 173.068V172.24L37.776 166.408H39.084V172.12H40.284V173.068H39.084V175H38.004V173.068H33.564ZM38.052 167.548L34.824 172.12H38.052V167.548Z" fill="black"/>
<path opacity="0.4" d="M77.243 173.14H73.595L72.923 175H71.771L74.795 166.684H76.055L79.067 175H77.915L77.243 173.14ZM76.931 172.252L75.419 168.028L73.907 172.252H76.931ZM81.4769 169.636C81.6929 169.26 82.0129 168.948 82.4369 168.7C82.8689 168.444 83.3689 168.316 83.9369 168.316C84.5209 168.316 85.0489 168.456 85.5209 168.736C86.0009 169.016 86.3769 169.412 86.6489 169.924C86.9209 170.428 87.0569 171.016 87.0569 171.688C87.0569 172.352 86.9209 172.944 86.6489 173.464C86.3769 173.984 86.0009 174.388 85.5209 174.676C85.0489 174.964 84.5209 175.108 83.9369 175.108C83.3769 175.108 82.8809 174.984 82.4489 174.736C82.0249 174.48 81.7009 174.164 81.4769 173.788V178.12H80.3849V168.424H81.4769V169.636ZM85.9409 171.688C85.9409 171.192 85.8409 170.76 85.6409 170.392C85.4409 170.024 85.1689 169.744 84.8249 169.552C84.4889 169.36 84.1169 169.264 83.7089 169.264C83.3089 169.264 82.9369 169.364 82.5929 169.564C82.2569 169.756 81.9849 170.04 81.7769 170.416C81.5769 170.784 81.4769 171.212 81.4769 171.7C81.4769 172.196 81.5769 172.632 81.7769 173.008C81.9849 173.376 82.2569 173.66 82.5929 173.86C82.9369 174.052 83.3089 174.148 83.7089 174.148C84.1169 174.148 84.4889 174.052 84.8249 173.86C85.1689 173.66 85.4409 173.376 85.6409 173.008C85.8409 172.632 85.9409 172.192 85.9409 171.688ZM89.5863 169.492C89.7783 169.116 90.0503 168.824 90.4023 168.616C90.7623 168.408 91.1983 168.304 91.7103 168.304V169.432H91.4223C90.1983 169.432 89.5863 170.096 89.5863 171.424V175H88.4943V168.424H89.5863V169.492ZM95.7021 167.32V166.324H97.9581V175H96.8541V167.32H95.7021ZM105.366 167.272H101.154V170.008C101.338 169.752 101.61 169.544 101.97 169.384C102.33 169.216 102.718 169.132 103.134 169.132C103.798 169.132 104.338 169.272 104.754 169.552C105.17 169.824 105.466 170.18 105.642 170.62C105.826 171.052 105.918 171.512 105.918 172C105.918 172.576 105.81 173.092 105.594 173.548C105.378 174.004 105.046 174.364 104.598 174.628C104.158 174.892 103.61 175.024 102.954 175.024C102.114 175.024 101.434 174.808 100.914 174.376C100.394 173.944 100.078 173.368 99.9658 172.648H101.034C101.138 173.104 101.358 173.46 101.694 173.716C102.03 173.972 102.454 174.1 102.966 174.1C103.598 174.1 104.074 173.912 104.394 173.536C104.714 173.152 104.874 172.648 104.874 172.024C104.874 171.4 104.714 170.92 104.394 170.584C104.074 170.24 103.602 170.068 102.978 170.068C102.554 170.068 102.182 170.172 101.862 170.38C101.55 170.58 101.322 170.856 101.178 171.208H100.146V166.312H105.366V167.272Z" fill="black"/>
<path opacity="0.4" d="M143.202 173.14H139.554L138.882 175H137.73L140.754 166.684H142.014L145.026 175H143.874L143.202 173.14ZM142.89 172.252L141.378 168.028L139.866 172.252H142.89ZM147.436 169.636C147.652 169.26 147.972 168.948 148.396 168.7C148.828 168.444 149.328 168.316 149.896 168.316C150.48 168.316 151.008 168.456 151.48 168.736C151.96 169.016 152.336 169.412 152.608 169.924C152.88 170.428 153.016 171.016 153.016 171.688C153.016 172.352 152.88 172.944 152.608 173.464C152.336 173.984 151.96 174.388 151.48 174.676C151.008 174.964 150.48 175.108 149.896 175.108C149.336 175.108 148.84 174.984 148.408 174.736C147.984 174.48 147.66 174.164 147.436 173.788V178.12H146.344V168.424H147.436V169.636ZM151.9 171.688C151.9 171.192 151.8 170.76 151.6 170.392C151.4 170.024 151.128 169.744 150.784 169.552C150.448 169.36 150.076 169.264 149.668 169.264C149.268 169.264 148.896 169.364 148.552 169.564C148.216 169.756 147.944 170.04 147.736 170.416C147.536 170.784 147.436 171.212 147.436 171.7C147.436 172.196 147.536 172.632 147.736 173.008C147.944 173.376 148.216 173.66 148.552 173.86C148.896 174.052 149.268 174.148 149.668 174.148C150.076 174.148 150.448 174.052 150.784 173.86C151.128 173.66 151.4 173.376 151.6 173.008C151.8 172.632 151.9 172.192 151.9 171.688ZM155.545 169.492C155.737 169.116 156.009 168.824 156.361 168.616C156.721 168.408 157.157 168.304 157.669 168.304V169.432H157.381C156.157 169.432 155.545 170.096 155.545 171.424V175H154.453V168.424H155.545V169.492ZM161.661 167.32V166.324H163.917V175H162.813V167.32H161.661ZM170.629 168.388C170.453 167.5 169.905 167.056 168.985 167.056C168.273 167.056 167.741 167.332 167.389 167.884C167.037 168.428 166.865 169.328 166.873 170.584C167.057 170.168 167.361 169.844 167.785 169.612C168.217 169.372 168.697 169.252 169.225 169.252C170.049 169.252 170.705 169.508 171.193 170.02C171.689 170.532 171.937 171.24 171.937 172.144C171.937 172.688 171.829 173.176 171.613 173.608C171.405 174.04 171.085 174.384 170.653 174.64C170.229 174.896 169.713 175.024 169.105 175.024C168.281 175.024 167.637 174.84 167.173 174.472C166.709 174.104 166.385 173.596 166.201 172.948C166.017 172.3 165.925 171.5 165.925 170.548C165.925 167.612 166.949 166.144 168.997 166.144C169.781 166.144 170.397 166.356 170.845 166.78C171.293 167.204 171.557 167.74 171.637 168.388H170.629ZM168.997 170.176C168.653 170.176 168.329 170.248 168.025 170.392C167.721 170.528 167.473 170.74 167.281 171.028C167.097 171.308 167.005 171.652 167.005 172.06C167.005 172.668 167.181 173.164 167.533 173.548C167.885 173.924 168.389 174.112 169.045 174.112C169.605 174.112 170.049 173.94 170.377 173.596C170.713 173.244 170.881 172.772 170.881 172.18C170.881 171.556 170.721 171.068 170.401 170.716C170.081 170.356 169.613 170.176 168.997 170.176Z" fill="black"/>
<path opacity="0.4" d="M209.235 173.14H205.587L204.915 175H203.763L206.787 166.684H208.047L211.059 175H209.907L209.235 173.14ZM208.923 172.252L207.411 168.028L205.899 172.252H208.923ZM213.469 169.636C213.685 169.26 214.005 168.948 214.429 168.7C214.861 168.444 215.361 168.316 215.929 168.316C216.513 168.316 217.041 168.456 217.513 168.736C217.993 169.016 218.369 169.412 218.641 169.924C218.913 170.428 219.049 171.016 219.049 171.688C219.049 172.352 218.913 172.944 218.641 173.464C218.369 173.984 217.993 174.388 217.513 174.676C217.041 174.964 216.513 175.108 215.929 175.108C215.369 175.108 214.873 174.984 214.441 174.736C214.017 174.48 213.693 174.164 213.469 173.788V178.12H212.377V168.424H213.469V169.636ZM217.933 171.688C217.933 171.192 217.833 170.76 217.633 170.392C217.433 170.024 217.161 169.744 216.817 169.552C216.481 169.36 216.109 169.264 215.701 169.264C215.301 169.264 214.929 169.364 214.585 169.564C214.249 169.756 213.977 170.04 213.769 170.416C213.569 170.784 213.469 171.212 213.469 171.7C213.469 172.196 213.569 172.632 213.769 173.008C213.977 173.376 214.249 173.66 214.585 173.86C214.929 174.052 215.301 174.148 215.701 174.148C216.109 174.148 216.481 174.052 216.817 173.86C217.161 173.66 217.433 173.376 217.633 173.008C217.833 172.632 217.933 172.192 217.933 171.688ZM221.579 169.492C221.771 169.116 222.043 168.824 222.395 168.616C222.755 168.408 223.191 168.304 223.703 168.304V169.432H223.415C222.191 169.432 221.579 170.096 221.579 171.424V175H220.487V168.424H221.579V169.492ZM227.694 167.32V166.324H229.95V175H228.846V167.32H227.694ZM237.166 167.176L233.83 175H232.726L236.11 167.284H231.478V166.348H237.166V167.176Z" fill="black"/>
<path opacity="0.4" d="M274.225 173.14H270.577L269.905 175H268.753L271.777 166.684H273.037L276.049 175H274.897L274.225 173.14ZM273.913 172.252L272.401 168.028L270.889 172.252H273.913ZM278.459 169.636C278.675 169.26 278.995 168.948 279.419 168.7C279.851 168.444 280.351 168.316 280.919 168.316C281.503 168.316 282.031 168.456 282.503 168.736C282.983 169.016 283.359 169.412 283.631 169.924C283.903 170.428 284.039 171.016 284.039 171.688C284.039 172.352 283.903 172.944 283.631 173.464C283.359 173.984 282.983 174.388 282.503 174.676C282.031 174.964 281.503 175.108 280.919 175.108C280.359 175.108 279.863 174.984 279.431 174.736C279.007 174.48 278.683 174.164 278.459 173.788V178.12H277.367V168.424H278.459V169.636ZM282.923 171.688C282.923 171.192 282.823 170.76 282.623 170.392C282.423 170.024 282.151 169.744 281.807 169.552C281.471 169.36 281.099 169.264 280.691 169.264C280.291 169.264 279.919 169.364 279.575 169.564C279.239 169.756 278.967 170.04 278.759 170.416C278.559 170.784 278.459 171.212 278.459 171.7C278.459 172.196 278.559 172.632 278.759 173.008C278.967 173.376 279.239 173.66 279.575 173.86C279.919 174.052 280.291 174.148 280.691 174.148C281.099 174.148 281.471 174.052 281.807 173.86C282.151 173.66 282.423 173.376 282.623 173.008C282.823 172.632 282.923 172.192 282.923 171.688ZM286.569 169.492C286.761 169.116 287.033 168.824 287.385 168.616C287.745 168.408 288.181 168.304 288.693 168.304V169.432H288.405C287.181 169.432 286.569 170.096 286.569 171.424V175H285.477V168.424H286.569V169.492ZM292.685 167.32V166.324H294.941V175H293.837V167.32H292.685ZM298.4 170.488C297.952 170.312 297.608 170.056 297.368 169.72C297.128 169.384 297.008 168.976 297.008 168.496C297.008 168.064 297.116 167.676 297.332 167.332C297.548 166.98 297.868 166.704 298.292 166.504C298.724 166.296 299.244 166.192 299.852 166.192C300.46 166.192 300.976 166.296 301.4 166.504C301.832 166.704 302.156 166.98 302.372 167.332C302.596 167.676 302.708 168.064 302.708 168.496C302.708 168.96 302.584 169.368 302.336 169.72C302.088 170.064 301.748 170.32 301.316 170.488C301.812 170.64 302.204 170.908 302.492 171.292C302.788 171.668 302.936 172.124 302.936 172.66C302.936 173.18 302.808 173.636 302.552 174.028C302.296 174.412 301.932 174.712 301.46 174.928C300.996 175.136 300.46 175.24 299.852 175.24C299.244 175.24 298.708 175.136 298.244 174.928C297.788 174.712 297.432 174.412 297.176 174.028C296.92 173.636 296.792 173.18 296.792 172.66C296.792 172.124 296.936 171.664 297.224 171.28C297.512 170.896 297.904 170.632 298.4 170.488ZM301.652 168.628C301.652 168.14 301.492 167.764 301.172 167.5C300.852 167.236 300.412 167.104 299.852 167.104C299.3 167.104 298.864 167.236 298.544 167.5C298.224 167.764 298.064 168.144 298.064 168.64C298.064 169.088 298.228 169.448 298.556 169.72C298.892 169.992 299.324 170.128 299.852 170.128C300.388 170.128 300.82 169.992 301.148 169.72C301.484 169.44 301.652 169.076 301.652 168.628ZM299.852 170.968C299.26 170.968 298.776 171.108 298.4 171.388C298.024 171.66 297.836 172.072 297.836 172.624C297.836 173.136 298.016 173.548 298.376 173.86C298.744 174.172 299.236 174.328 299.852 174.328C300.468 174.328 300.956 174.172 301.316 173.86C301.676 173.548 301.856 173.136 301.856 172.624C301.856 172.088 301.672 171.68 301.304 171.4C300.936 171.112 300.452 170.968 299.852 170.968Z" fill="black"/>
<path opacity="0.4" d="M340.231 173.14H336.583L335.911 175H334.759L337.783 166.684H339.043L342.055 175H340.903L340.231 173.14ZM339.919 172.252L338.407 168.028L336.895 172.252H339.919ZM344.465 169.636C344.681 169.26 345.001 168.948 345.425 168.7C345.857 168.444 346.357 168.316 346.925 168.316C347.509 168.316 348.037 168.456 348.509 168.736C348.989 169.016 349.365 169.412 349.637 169.924C349.909 170.428 350.045 171.016 350.045 171.688C350.045 172.352 349.909 172.944 349.637 173.464C349.365 173.984 348.989 174.388 348.509 174.676C348.037 174.964 347.509 175.108 346.925 175.108C346.365 175.108 345.869 174.984 345.437 174.736C345.013 174.48 344.689 174.164 344.465 173.788V178.12H343.373V168.424H344.465V169.636ZM348.929 171.688C348.929 171.192 348.829 170.76 348.629 170.392C348.429 170.024 348.157 169.744 347.813 169.552C347.477 169.36 347.105 169.264 346.697 169.264C346.297 169.264 345.925 169.364 345.581 169.564C345.245 169.756 344.973 170.04 344.765 170.416C344.565 170.784 344.465 171.212 344.465 171.7C344.465 172.196 344.565 172.632 344.765 173.008C344.973 173.376 345.245 173.66 345.581 173.86C345.925 174.052 346.297 174.148 346.697 174.148C347.105 174.148 347.477 174.052 347.813 173.86C348.157 173.66 348.429 173.376 348.629 173.008C348.829 172.632 348.929 172.192 348.929 171.688ZM352.575 169.492C352.767 169.116 353.039 168.824 353.391 168.616C353.751 168.408 354.187 168.304 354.699 168.304V169.432H354.411C353.187 169.432 352.575 170.096 352.575 171.424V175H351.483V168.424H352.575V169.492ZM358.69 167.32V166.324H360.946V175H359.842V167.32H358.69ZM364.226 172.672C364.306 173.128 364.49 173.48 364.778 173.728C365.074 173.976 365.47 174.1 365.966 174.1C366.63 174.1 367.118 173.84 367.43 173.32C367.75 172.8 367.902 171.924 367.886 170.692C367.718 171.052 367.438 171.336 367.046 171.544C366.654 171.744 366.218 171.844 365.738 171.844C365.202 171.844 364.722 171.736 364.298 171.52C363.882 171.296 363.554 170.972 363.314 170.548C363.074 170.124 362.954 169.612 362.954 169.012C362.954 168.156 363.202 167.468 363.698 166.948C364.194 166.42 364.898 166.156 365.81 166.156C366.93 166.156 367.714 166.52 368.162 167.248C368.618 167.976 368.846 169.06 368.846 170.5C368.846 171.508 368.754 172.34 368.57 172.996C368.394 173.652 368.09 174.152 367.658 174.496C367.234 174.84 366.65 175.012 365.906 175.012C365.09 175.012 364.454 174.792 363.998 174.352C363.542 173.912 363.282 173.352 363.218 172.672H364.226ZM365.918 170.92C366.454 170.92 366.894 170.756 367.238 170.428C367.582 170.092 367.754 169.64 367.754 169.072C367.754 168.472 367.586 167.988 367.25 167.62C366.914 167.252 366.442 167.068 365.834 167.068C365.274 167.068 364.826 167.244 364.49 167.596C364.162 167.948 363.998 168.412 363.998 168.988C363.998 169.572 364.162 170.04 364.49 170.392C364.818 170.744 365.294 170.92 365.918 170.92Z" fill="black"/>
<path opacity="0.4" d="M406.214 173.14H402.566L401.894 175H400.742L403.766 166.684H405.026L408.038 175H406.886L406.214 173.14ZM405.902 172.252L404.39 168.028L402.878 172.252H405.902ZM410.448 169.636C410.664 169.26 410.984 168.948 411.408 168.7C411.84 168.444 412.34 168.316 412.908 168.316C413.492 168.316 414.02 168.456 414.492 168.736C414.972 169.016 415.348 169.412 415.62 169.924C415.892 170.428 416.028 171.016 416.028 171.688C416.028 172.352 415.892 172.944 415.62 173.464C415.348 173.984 414.972 174.388 414.492 174.676C414.02 174.964 413.492 175.108 412.908 175.108C412.348 175.108 411.852 174.984 411.42 174.736C410.996 174.48 410.672 174.164 410.448 173.788V178.12H409.356V168.424H410.448V169.636ZM414.912 171.688C414.912 171.192 414.812 170.76 414.612 170.392C414.412 170.024 414.14 169.744 413.796 169.552C413.46 169.36 413.088 169.264 412.68 169.264C412.28 169.264 411.908 169.364 411.564 169.564C411.228 169.756 410.956 170.04 410.748 170.416C410.548 170.784 410.448 171.212 410.448 171.7C410.448 172.196 410.548 172.632 410.748 173.008C410.956 173.376 411.228 173.66 411.564 173.86C411.908 174.052 412.28 174.148 412.68 174.148C413.088 174.148 413.46 174.052 413.796 173.86C414.14 173.66 414.412 173.376 414.612 173.008C414.812 172.632 414.912 172.192 414.912 171.688ZM418.557 169.492C418.749 169.116 419.021 168.824 419.373 168.616C419.733 168.408 420.169 168.304 420.681 168.304V169.432H420.393C419.169 169.432 418.557 170.096 418.557 171.424V175H417.465V168.424H418.557V169.492ZM424.829 174.124C425.845 173.308 426.641 172.64 427.217 172.12C427.793 171.592 428.277 171.044 428.669 170.476C429.069 169.9 429.269 169.336 429.269 168.784C429.269 168.264 429.141 167.856 428.885 167.56C428.637 167.256 428.233 167.104 427.673 167.104C427.129 167.104 426.705 167.276 426.401 167.62C426.105 167.956 425.945 168.408 425.921 168.976H424.865C424.897 168.08 425.169 167.388 425.681 166.9C426.193 166.412 426.853 166.168 427.661 166.168C428.485 166.168 429.137 166.396 429.617 166.852C430.105 167.308 430.349 167.936 430.349 168.736C430.349 169.4 430.149 170.048 429.749 170.68C429.357 171.304 428.909 171.856 428.405 172.336C427.901 172.808 427.257 173.36 426.473 173.992H430.601V174.904H424.829V174.124ZM431.863 170.572C431.863 169.196 432.087 168.124 432.535 167.356C432.983 166.58 433.767 166.192 434.887 166.192C435.999 166.192 436.779 166.58 437.227 167.356C437.675 168.124 437.899 169.196 437.899 170.572C437.899 171.972 437.675 173.06 437.227 173.836C436.779 174.612 435.999 175 434.887 175C433.767 175 432.983 174.612 432.535 173.836C432.087 173.06 431.863 171.972 431.863 170.572ZM436.819 170.572C436.819 169.876 436.771 169.288 436.675 168.808C436.587 168.32 436.399 167.928 436.111 167.632C435.831 167.336 435.423 167.188 434.887 167.188C434.343 167.188 433.927 167.336 433.639 167.632C433.359 167.928 433.171 168.32 433.075 168.808C432.987 169.288 432.943 169.876 432.943 170.572C432.943 171.292 432.987 171.896 433.075 172.384C433.171 172.872 433.359 173.264 433.639 173.56C433.927 173.856 434.343 174.004 434.887 174.004C435.423 174.004 435.831 173.856 436.111 173.56C436.399 173.264 436.587 172.872 436.675 172.384C436.771 171.896 436.819 171.292 436.819 170.572Z" fill="black"/>
<path d="M17.5 138L85.5 63.5L155.5 126.5L222.5 106.5L293.5 51L354 117.5L425.5 71" stroke="#1B1B1B"/>
<circle cx="18" cy="138" r="4" fill="#090808"/>
<circle cx="18" cy="138" r="2" fill="#E6E6E6"/>
<circle cx="85" cy="64" r="4" fill="#1B1B1B"/>
<circle cx="156" cy="126" r="4" fill="#1B1B1B"/>
<circle cx="353" cy="117" r="4" fill="#1B1B1B"/>
<circle cx="223" cy="105" r="4" fill="#1B1B1B"/>
<circle cx="293" cy="52" r="4" fill="#1B1B1B"/>
<circle cx="425" cy="71" r="4" fill="#1B1B1B"/>
<g filter="url(#filter0_b_1818_2615)">
<path d="M0 112.8C0 108.32 0 106.079 0.871948 104.368C1.63893 102.863 2.86278 101.639 4.36808 100.872C6.07937 100 8.31958 100 12.8 100H56.2C60.6804 100 62.9206 100 64.6319 100.872C66.1372 101.639 67.3611 102.863 68.1281 104.368C69 106.079 69 108.32 69 112.8V113.2C69 117.68 69 119.921 68.1281 121.632C67.3611 123.137 66.1372 124.361 64.6319 125.128C62.9206 126 60.6804 126 56.2 126H12.8C8.31958 126 6.07937 126 4.36808 125.128C2.86278 124.361 1.63893 123.137 0.871948 121.632C0 119.921 0 117.68 0 113.2V112.8Z" fill="#EF4827"/>
<path d="M14.288 108.66V109.776H12.068V117H10.7V109.776H8.468V108.66H14.288ZM18.5414 117.108C17.9174 117.108 17.3534 116.968 16.8494 116.688C16.3454 116.4 15.9494 116 15.6614 115.488C15.3734 114.968 15.2294 114.368 15.2294 113.688C15.2294 113.016 15.3774 112.42 15.6734 111.9C15.9694 111.38 16.3734 110.98 16.8854 110.7C17.3974 110.42 17.9694 110.28 18.6014 110.28C19.2334 110.28 19.8054 110.42 20.3174 110.7C20.8294 110.98 21.2334 111.38 21.5294 111.9C21.8254 112.42 21.9734 113.016 21.9734 113.688C21.9734 114.36 21.8214 114.956 21.5174 115.476C21.2134 115.996 20.7974 116.4 20.2694 116.688C19.7494 116.968 19.1734 117.108 18.5414 117.108ZM18.5414 115.92C18.8934 115.92 19.2214 115.836 19.5254 115.668C19.8374 115.5 20.0894 115.248 20.2814 114.912C20.4734 114.576 20.5694 114.168 20.5694 113.688C20.5694 113.208 20.4774 112.804 20.2934 112.476C20.1094 112.14 19.8654 111.888 19.5614 111.72C19.2574 111.552 18.9294 111.468 18.5774 111.468C18.2254 111.468 17.8974 111.552 17.5934 111.72C17.2974 111.888 17.0614 112.14 16.8854 112.476C16.7094 112.804 16.6214 113.208 16.6214 113.688C16.6214 114.4 16.8014 114.952 17.1614 115.344C17.5294 115.728 17.9894 115.92 18.5414 115.92ZM26.1938 117.108C25.5698 117.108 25.0058 116.968 24.5018 116.688C23.9978 116.4 23.6018 116 23.3138 115.488C23.0258 114.968 22.8818 114.368 22.8818 113.688C22.8818 113.016 23.0298 112.42 23.3258 111.9C23.6218 111.38 24.0258 110.98 24.5378 110.7C25.0498 110.42 25.6218 110.28 26.2538 110.28C26.8858 110.28 27.4578 110.42 27.9698 110.7C28.4818 110.98 28.8858 111.38 29.1818 111.9C29.4778 112.42 29.6258 113.016 29.6258 113.688C29.6258 114.36 29.4738 114.956 29.1698 115.476C28.8658 115.996 28.4498 116.4 27.9218 116.688C27.4018 116.968 26.8258 117.108 26.1938 117.108ZM26.1938 115.92C26.5458 115.92 26.8738 115.836 27.1778 115.668C27.4898 115.5 27.7418 115.248 27.9338 114.912C28.1258 114.576 28.2218 114.168 28.2218 113.688C28.2218 113.208 28.1298 112.804 27.9458 112.476C27.7618 112.14 27.5178 111.888 27.2138 111.72C26.9098 111.552 26.5818 111.468 26.2298 111.468C25.8778 111.468 25.5498 111.552 25.2458 111.72C24.9498 111.888 24.7138 112.14 24.5378 112.476C24.3618 112.804 24.2738 113.208 24.2738 113.688C24.2738 114.4 24.4538 114.952 24.8138 115.344C25.1818 115.728 25.6418 115.92 26.1938 115.92ZM32.3461 108.12V117H30.9781V108.12H32.3461ZM42.6474 108.66V109.776H40.4274V117H39.0594V109.776H36.8274V108.66H42.6474ZM44.7288 109.512C44.4808 109.512 44.2728 109.428 44.1048 109.26C43.9368 109.092 43.8528 108.884 43.8528 108.636C43.8528 108.388 43.9368 108.18 44.1048 108.012C44.2728 107.844 44.4808 107.76 44.7288 107.76C44.9688 107.76 45.1728 107.844 45.3408 108.012C45.5088 108.18 45.5928 108.388 45.5928 108.636C45.5928 108.884 45.5088 109.092 45.3408 109.26C45.1728 109.428 44.9688 109.512 44.7288 109.512ZM45.4008 110.388V117H44.0328V110.388H45.4008ZM48.5649 111.36C48.7969 111.056 49.1129 110.8 49.5129 110.592C49.9129 110.384 50.3649 110.28 50.8689 110.28C51.4449 110.28 51.9689 110.424 52.4409 110.712C52.9209 110.992 53.2969 111.388 53.5689 111.9C53.8409 112.412 53.9769 113 53.9769 113.664C53.9769 114.328 53.8409 114.924 53.5689 115.452C53.2969 115.972 52.9209 116.38 52.4409 116.676C51.9689 116.964 51.4449 117.108 50.8689 117.108C50.3649 117.108 49.9169 117.008 49.5249 116.808C49.1329 116.6 48.8129 116.344 48.5649 116.04V120.144H47.1969V110.388H48.5649V111.36ZM52.5849 113.664C52.5849 113.208 52.4889 112.816 52.2969 112.488C52.1129 112.152 51.8649 111.9 51.5529 111.732C51.2489 111.556 50.9209 111.468 50.5689 111.468C50.2249 111.468 49.8969 111.556 49.5849 111.732C49.2809 111.908 49.0329 112.164 48.8409 112.5C48.6569 112.836 48.5649 113.232 48.5649 113.688C48.5649 114.144 48.6569 114.544 48.8409 114.888C49.0329 115.224 49.2809 115.48 49.5849 115.656C49.8969 115.832 50.2249 115.92 50.5689 115.92C50.9209 115.92 51.2489 115.832 51.5529 115.656C51.8649 115.472 52.1129 115.208 52.2969 114.864C52.4889 114.52 52.5849 114.12 52.5849 113.664ZM57.7297 117.108C57.2097 117.108 56.7417 117.016 56.3257 116.832C55.9177 116.64 55.5937 116.384 55.3537 116.064C55.1137 115.736 54.9857 115.372 54.9697 114.972H56.3857C56.4097 115.252 56.5417 115.488 56.7817 115.68C57.0297 115.864 57.3377 115.956 57.7057 115.956C58.0897 115.956 58.3857 115.884 58.5937 115.74C58.8097 115.588 58.9177 115.396 58.9177 115.164C58.9177 114.916 58.7977 114.732 58.5577 114.612C58.3257 114.492 57.9537 114.36 57.4417 114.216C56.9457 114.08 56.5417 113.948 56.2297 113.82C55.9177 113.692 55.6457 113.496 55.4137 113.232C55.1897 112.968 55.0777 112.62 55.0777 112.188C55.0777 111.836 55.1817 111.516 55.3897 111.228C55.5977 110.932 55.8937 110.7 56.2777 110.532C56.6697 110.364 57.1177 110.28 57.6217 110.28C58.3737 110.28 58.9777 110.472 59.4337 110.856C59.8977 111.232 60.1457 111.748 60.1777 112.404H58.8097C58.7857 112.108 58.6657 111.872 58.4497 111.696C58.2337 111.52 57.9417 111.432 57.5737 111.432C57.2137 111.432 56.9377 111.5 56.7457 111.636C56.5537 111.772 56.4577 111.952 56.4577 112.176C56.4577 112.352 56.5217 112.5 56.6497 112.62C56.7777 112.74 56.9337 112.836 57.1177 112.908C57.3017 112.972 57.5737 113.056 57.9337 113.16C58.4137 113.288 58.8057 113.42 59.1097 113.556C59.4217 113.684 59.6897 113.876 59.9137 114.132C60.1377 114.388 60.2537 114.728 60.2617 115.152C60.2617 115.528 60.1577 115.864 59.9497 116.16C59.7417 116.456 59.4457 116.688 59.0617 116.856C58.6857 117.024 58.2417 117.108 57.7297 117.108Z" fill="white"/>
</g>
<defs>
<filter id="filter0_b_1818_2615" x="-20" y="80" width="109" height="66" filterUnits="userSpaceOnUse" color-interpolation-filters="sRGB">
<feFlood flood-opacity="0" result="BackgroundImageFix"/>
<feGaussianBlur in="BackgroundImageFix" stdDeviation="10"/>
<feComposite in2="SourceAlpha" operator="in" result="effect1_backgroundBlur_1818_2615"/>
<feBlend mode="normal" in="SourceGraphic" in2="effect1_backgroundBlur_1818_2615" result="shape"/>
</filter>
</defs>
</svg>
