<svg width="16" height="16" viewBox="0 0 16 16" fill="none" xmlns="http://www.w3.org/2000/svg">
<path d="M2.66663 3.5C2.66663 3.10218 2.82466 2.72064 3.10597 2.43934C3.38727 2.15804 3.7688 2 4.16663 2H10.5C10.8978 2 11.2793 2.15804 11.5606 2.43934C11.8419 2.72064 12 3.10218 12 3.5V9.33333H14.6666V11.8333C14.6666 12.1179 14.6106 12.3996 14.5017 12.6625C14.3928 12.9254 14.2332 13.1642 14.032 13.3654C13.8308 13.5666 13.592 13.7262 13.3291 13.8351C13.0662 13.944 12.7845 14 12.5 14H8.63329C8.65529 13.892 8.66663 13.7807 8.66663 13.6667V13H11V3.5C11 3.36739 10.9473 3.24021 10.8535 3.14645C10.7597 3.05268 10.6326 3 10.5 3H4.16663C4.03402 3 3.90684 3.05268 3.81307 3.14645C3.7193 3.24021 3.66663 3.36739 3.66663 3.5V9.33333H2.66663V3.5ZM12 13H12.5C12.8094 13 13.1061 12.8771 13.3249 12.6583C13.5437 12.4395 13.6666 12.1428 13.6666 11.8333V10.3333H12V13ZM5.49996 4.66667C5.36735 4.66667 5.24017 4.71935 5.14641 4.81311C5.05264 4.90688 4.99996 5.03406 4.99996 5.16667C4.99996 5.29927 5.05264 5.42645 5.14641 5.52022C5.24017 5.61399 5.36735 5.66667 5.49996 5.66667H9.16663C9.29923 5.66667 9.42641 5.61399 9.52018 5.52022C9.61395 5.42645 9.66663 5.29927 9.66663 5.16667C9.66663 5.03406 9.61395 4.90688 9.52018 4.81311C9.42641 4.71935 9.29923 4.66667 9.16663 4.66667H5.49996ZM4.99996 7.83333C4.99996 7.70073 5.05264 7.57355 5.14641 7.47978C5.24017 7.38601 5.36735 7.33333 5.49996 7.33333H9.16663C9.29923 7.33333 9.42641 7.38601 9.52018 7.47978C9.61395 7.57355 9.66663 7.70073 9.66663 7.83333C9.66663 7.96594 9.61395 8.09312 9.52018 8.18689C9.42641 8.28065 9.29923 8.33333 9.16663 8.33333H5.49996C5.36735 8.33333 5.24017 8.28065 5.14641 8.18689C5.05264 8.09312 4.99996 7.96594 4.99996 7.83333ZM1.66663 10C1.40141 10 1.14706 10.1054 0.959519 10.2929C0.771983 10.4804 0.666626 10.7348 0.666626 11V13.6667C0.666626 13.9319 0.771983 14.1862 0.959519 14.3738C1.14706 14.5613 1.40141 14.6667 1.66663 14.6667H6.99996C7.26518 14.6667 7.51953 14.5613 7.70707 14.3738C7.8946 14.1862 7.99996 13.9319 7.99996 13.6667V11C7.99996 10.7348 7.8946 10.4804 7.70707 10.2929C7.51953 10.1054 7.26518 10 6.99996 10H1.66663ZM6.66663 10.6667C6.66663 10.8435 6.73686 11.013 6.86189 11.1381C6.98691 11.2631 7.15648 11.3333 7.33329 11.3333V12C6.97967 12 6.64053 11.8595 6.39048 11.6095C6.14044 11.3594 5.99996 11.0203 5.99996 10.6667H6.66663ZM5.99996 14C5.99996 13.6464 6.14044 13.3072 6.39048 13.0572C6.64053 12.8071 6.97967 12.6667 7.33329 12.6667V13.3333C7.15648 13.3333 6.98691 13.4036 6.86189 13.5286C6.73686 13.6536 6.66663 13.8232 6.66663 14H5.99996ZM1.33329 11.3333C1.5101 11.3333 1.67967 11.2631 1.8047 11.1381C1.92972 11.013 1.99996 10.8435 1.99996 10.6667H2.66663C2.66663 11.0203 2.52615 11.3594 2.2761 11.6095C2.02605 11.8595 1.68691 12 1.33329 12V11.3333ZM1.33329 12.6667C1.68691 12.6667 2.02605 12.8071 2.2761 13.0572C2.52615 13.3072 2.66663 13.6464 2.66663 14H1.99996C1.99996 13.8232 1.92972 13.6536 1.8047 13.5286C1.67967 13.4036 1.5101 13.3333 1.33329 13.3333V12.6667ZM4.33329 11.1667C4.64271 11.1667 4.93946 11.2896 5.15825 11.5084C5.37704 11.7272 5.49996 12.0239 5.49996 12.3333C5.49996 12.6428 5.37704 12.9395 5.15825 13.1583C4.93946 13.3771 4.64271 13.5 4.33329 13.5C4.02387 13.5 3.72713 13.3771 3.50833 13.1583C3.28954 12.9395 3.16663 12.6428 3.16663 12.3333C3.16663 12.0239 3.28954 11.7272 3.50833 11.5084C3.72713 11.2896 4.02387 11.1667 4.33329 11.1667Z" fill="white"/>
</svg>
