<svg width="16" height="16" viewBox="0 0 16 16" fill="none" xmlns="http://www.w3.org/2000/svg">
<path fill-rule="evenodd" clip-rule="evenodd" d="M1.33337 2.00065C1.33337 1.63246 1.63185 1.33398 2.00004 1.33398H6.66671C7.0349 1.33398 7.33337 1.63246 7.33337 2.00065V6.66732C7.33337 7.03551 7.0349 7.33398 6.66671 7.33398H2.00004C1.63185 7.33398 1.33337 7.03551 1.33337 6.66732V2.00065ZM2.66671 2.66732V6.00065H6.00004V2.66732H2.66671Z" fill="white"/>
<path fill-rule="evenodd" clip-rule="evenodd" d="M8.66663 2.00065C8.66663 1.63246 8.9651 1.33398 9.33329 1.33398H14C14.3681 1.33398 14.6666 1.63246 14.6666 2.00065V6.66732C14.6666 7.03551 14.3681 7.33398 14 7.33398H9.33329C8.9651 7.33398 8.66663 7.03551 8.66663 6.66732V2.00065ZM9.99996 2.66732V6.00065H13.3333V2.66732H9.99996Z" fill="white"/>
<path fill-rule="evenodd" clip-rule="evenodd" d="M8.66663 9.33268C8.66663 8.96449 8.9651 8.66602 9.33329 8.66602H14C14.3681 8.66602 14.6666 8.96449 14.6666 9.33268V13.9993C14.6666 14.3675 14.3681 14.666 14 14.666H9.33329C8.9651 14.666 8.66663 14.3675 8.66663 13.9993V9.33268ZM9.99996 9.99935V13.3327H13.3333V9.99935H9.99996Z" fill="white"/>
<path fill-rule="evenodd" clip-rule="evenodd" d="M1.33337 9.33268C1.33337 8.96449 1.63185 8.66602 2.00004 8.66602H6.66671C7.0349 8.66602 7.33337 8.96449 7.33337 9.33268V13.9993C7.33337 14.3675 7.0349 14.666 6.66671 14.666H2.00004C1.63185 14.666 1.33337 14.3675 1.33337 13.9993V9.33268ZM2.66671 9.99935V13.3327H6.00004V9.99935H2.66671Z" fill="white"/>
</svg>
