<svg width="150" height="149" viewBox="0 0 150 149" fill="none" xmlns="http://www.w3.org/2000/svg">
<path d="M109.811 26.0742C114.684 21.6467 122.185 22.0494 126.566 26.9736C137.707 39.4953 144.5 56.0891 144.5 74.2581C144.5 113.328 113.16 145 74.4999 145C35.8399 145 4.49988 113.328 4.49988 74.2581C4.49988 70.3381 4.81651 66.4841 5.42767 62.723C6.48947 56.1885 12.5919 51.7611 19.0579 52.8342C25.5238 53.9073 29.9048 60.0744 28.843 66.6089C28.4397 69.0905 28.2288 71.645 28.2288 74.2581C28.2288 100.084 48.9451 121.02 74.4999 121.02C100.055 121.02 120.771 100.084 120.771 74.2581C120.771 62.2357 116.297 51.2977 108.921 43.007C104.54 38.0828 104.938 30.5017 109.811 26.0742Z" fill="#FAC8BE"/>
<path d="M109.811 26.0742C114.684 21.6467 122.185 22.0494 126.566 26.9736C137.707 39.4953 144.5 56.0891 144.5 74.2581C144.5 113.328 113.16 145 74.4999 145C35.8399 145 4.49988 113.328 4.49988 74.2581C4.49988 70.3381 4.81651 66.4841 5.42767 62.723C6.48947 56.1885 12.5919 51.7611 19.0579 52.8342C25.5238 53.9073 29.9048 60.0744 28.843 66.6089C28.4397 69.0905 28.2288 71.645 28.2288 74.2581C28.2288 100.084 48.9451 121.02 74.4999 121.02C100.055 121.02 120.771 100.084 120.771 74.2581C120.771 62.2357 116.297 51.2977 108.921 43.007C104.54 38.0828 104.938 30.5017 109.811 26.0742Z" stroke="#E6E6E6"/>
<path d="M38.9696 26.4811C43.877 30.8935 44.2783 38.4486 39.866 43.356C36.2966 47.3259 33.4044 51.9043 31.3626 56.9085C28.8694 63.0188 21.895 65.9511 15.7847 63.458C9.67439 60.9648 6.74209 53.9904 9.23521 47.8801C12.3331 40.2877 16.7111 33.3651 22.0947 27.3775C26.507 22.4701 34.0622 22.0688 38.9696 26.4811Z" fill="#F5917D"/>
<path d="M38.9696 26.4811C43.877 30.8935 44.2783 38.4486 39.866 43.356C36.2966 47.3259 33.4044 51.9043 31.3626 56.9085C28.8694 63.0188 21.895 65.9511 15.7847 63.458C9.67439 60.9648 6.74209 53.9904 9.23521 47.8801C12.3331 40.2877 16.7111 33.3651 22.0947 27.3775C26.507 22.4701 34.0622 22.0688 38.9696 26.4811Z" stroke="#E6E6E6"/>
<path d="M74.3713 27.8984C64.4543 27.8984 55.2934 30.9826 47.7498 36.2444C42.3371 40.0199 34.8887 38.6927 31.1132 33.28C27.3377 27.8673 28.6649 20.4188 34.0776 16.6433C45.5017 8.67479 59.4085 4 74.3713 4C89.3341 4 103.241 8.67479 114.665 16.6433C120.078 20.4188 121.405 27.8673 117.629 33.28C113.854 38.6927 106.405 40.0199 100.993 36.2444C93.4492 30.9826 84.2883 27.8984 74.3713 27.8984Z" fill="#EF4827"/>
<path d="M74.3713 27.8984C64.4543 27.8984 55.2934 30.9826 47.7498 36.2444C42.3371 40.0199 34.8887 38.6927 31.1132 33.28C27.3377 27.8673 28.6649 20.4188 34.0776 16.6433C45.5017 8.67479 59.4085 4 74.3713 4C89.3341 4 103.241 8.67479 114.665 16.6433C120.078 20.4188 121.405 27.8673 117.629 33.28C113.854 38.6927 106.405 40.0199 100.993 36.2444C93.4492 30.9826 84.2883 27.8984 74.3713 27.8984Z" stroke="#E6E6E6"/>
<path d="M109.754 26.0742C114.634 21.6467 122.148 22.0494 126.537 26.9736C137.696 39.4953 144.5 56.0892 144.5 74.2581C144.5 113.328 113.108 145 74.3842 145C67.8208 145 62.5001 139.632 62.5001 133.01C62.5001 126.388 67.8208 121.02 74.3842 121.02C99.9813 121.02 120.732 100.084 120.732 74.2581C120.732 62.2357 116.251 51.2977 108.862 43.007C104.474 38.0828 104.873 30.5017 109.754 26.0742Z" fill="#1B1B1B"/>
<path d="M109.754 26.0742C114.634 21.6467 122.148 22.0494 126.537 26.9736C137.696 39.4953 144.5 56.0892 144.5 74.2581C144.5 113.328 113.108 145 74.3842 145C67.8208 145 62.5001 139.632 62.5001 133.01C62.5001 126.388 67.8208 121.02 74.3842 121.02C99.9813 121.02 120.732 100.084 120.732 74.2581C120.732 62.2357 116.251 51.2977 108.862 43.007C104.474 38.0828 104.873 30.5017 109.754 26.0742Z" stroke="#E6E6E6"/>
<path d="M38.5746 121C47.7941 127.979 59.1684 132.304 71.5989 132.787C76.973 132.996 82.2059 132.474 87.2019 131.31" stroke="#FAC8BE" stroke-width="24" stroke-linecap="round" stroke-linejoin="round"/>
<path d="M128.925 26.0403C123.775 20.3115 114.955 19.843 109.226 24.9939C103.497 30.1448 103.029 38.9645 108.18 44.6933C115.291 52.6025 119.602 63.0313 119.602 74.5002C119.602 99.1329 99.6328 119.102 75 119.102C50.3673 119.102 30.3985 99.1329 30.3985 74.5002C30.3985 72.005 30.602 69.5677 30.9906 67.2012C32.239 59.5991 27.0883 52.4244 19.4862 51.176C11.8841 49.9277 4.70935 55.0784 3.46097 62.6805C2.82792 66.5355 2.50012 70.4847 2.50012 74.5002C2.50012 114.541 34.9594 147 75 147C115.041 147 147.5 114.541 147.5 74.5002C147.5 55.8806 140.463 38.8719 128.925 26.0403Z" fill="#FAC8BE" stroke="white" stroke-width="4" stroke-linecap="round" stroke-linejoin="round"/>
<path d="M41.6867 44.6933C46.8376 38.9645 46.3691 30.1448 40.6403 24.9939C34.9115 19.843 26.0918 20.3115 20.941 26.0403C15.4055 32.1968 10.9032 39.3155 7.71692 47.1245C4.80651 54.2575 8.22961 62.3993 15.3626 65.3097C22.4956 68.2202 30.6374 64.7971 33.5479 57.664C35.5013 52.8764 38.2692 48.4942 41.6867 44.6933Z" fill="#F8AC9D" stroke="#FAFAFA" stroke-width="4" stroke-linecap="round" stroke-linejoin="round"/>
<path d="M49.2275 37.8848C56.4462 32.8496 65.2099 29.8984 74.7048 29.8984C84.1997 29.8984 92.9633 32.8496 100.182 37.8848C106.501 42.2922 115.196 40.7428 119.603 34.4242C124.011 28.1055 122.461 19.4104 116.143 15.003C104.394 6.80795 90.09 2 74.7048 2C59.3196 2 45.0157 6.80795 33.2669 15.003C26.9483 19.4104 25.3989 28.1055 29.8063 34.4242C34.2137 40.7428 42.9089 42.2922 49.2275 37.8848Z" fill="#EF4827" stroke="#FAFAFA" stroke-width="4" stroke-linecap="round" stroke-linejoin="round"/>
<path d="M128.926 26.0403C123.775 20.3115 114.955 19.843 109.226 24.9939C103.498 30.1448 103.029 38.9645 108.18 44.6933C115.291 52.6025 119.602 63.0313 119.602 74.5002C119.602 99.1329 99.6331 119.102 75.0003 119.102C67.2964 119.102 61.0511 125.347 61.0511 133.051C61.0511 140.755 67.2964 147 75.0003 147C115.041 147 147.5 114.541 147.5 74.5002C147.5 55.8806 140.463 38.8719 128.926 26.0403Z" fill="#1B1B1B" stroke="#FAFAFA" stroke-width="4" stroke-linecap="round" stroke-linejoin="round"/>
<path d="M75.0004 132.792C80.3785 132.792 85.5872 132.066 90.5342 130.709" stroke="white" stroke-width="28" stroke-linecap="round" stroke-linejoin="round"/>
<path d="M39.7226 121.052C48.9421 128.03 60.3164 132.355 72.7469 132.839C78.1209 133.048 83.3539 132.526 88.3499 131.362" stroke="#FAC8BE" stroke-width="24" stroke-linecap="round" stroke-linejoin="round"/>
</svg>
