<svg width="16" height="16" viewBox="0 0 16 16" fill="none" xmlns="http://www.w3.org/2000/svg">
<g clip-path="url(#clip0_1788_15963)">
<path fill-rule="evenodd" clip-rule="evenodd" d="M2.66663 1.99935C2.29844 1.99935 1.99996 2.29783 1.99996 2.66602V5.33268C1.99996 5.70087 2.29844 5.99935 2.66663 5.99935H13.3333C13.7015 5.99935 14 5.70087 14 5.33268V2.66602C14 2.29783 13.7015 1.99935 13.3333 1.99935H2.66663ZM0.666626 2.66602C0.666626 1.56145 1.56206 0.666016 2.66663 0.666016H13.3333C14.4379 0.666016 15.3333 1.56145 15.3333 2.66602V5.33268C15.3333 6.43725 14.4379 7.33268 13.3333 7.33268H2.66663C1.56206 7.33268 0.666626 6.43725 0.666626 5.33268V2.66602Z" fill="white"/>
<path fill-rule="evenodd" clip-rule="evenodd" d="M2.66663 9.99935C2.29844 9.99935 1.99996 10.2978 1.99996 10.666V13.3327C1.99996 13.7009 2.29844 13.9993 2.66663 13.9993H13.3333C13.7015 13.9993 14 13.7009 14 13.3327V10.666C14 10.2978 13.7015 9.99935 13.3333 9.99935H2.66663ZM0.666626 10.666C0.666626 9.56145 1.56206 8.66602 2.66663 8.66602H13.3333C14.4379 8.66602 15.3333 9.56145 15.3333 10.666V13.3327C15.3333 14.4373 14.4379 15.3327 13.3333 15.3327H2.66663C1.56206 15.3327 0.666626 14.4373 0.666626 13.3327V10.666Z" fill="white"/>
<path fill-rule="evenodd" clip-rule="evenodd" d="M3.33337 4.00065C3.33337 3.63246 3.63185 3.33398 4.00004 3.33398H4.00671C4.3749 3.33398 4.67337 3.63246 4.67337 4.00065C4.67337 4.36884 4.3749 4.66732 4.00671 4.66732H4.00004C3.63185 4.66732 3.33337 4.36884 3.33337 4.00065Z" fill="white"/>
<path fill-rule="evenodd" clip-rule="evenodd" d="M3.33337 12.0007C3.33337 11.6325 3.63185 11.334 4.00004 11.334H4.00671C4.3749 11.334 4.67337 11.6325 4.67337 12.0007C4.67337 12.3688 4.3749 12.6673 4.00671 12.6673H4.00004C3.63185 12.6673 3.33337 12.3688 3.33337 12.0007Z" fill="white"/>
</g>
<defs>
<clipPath id="clip0_1788_15963">
<rect width="16" height="16" fill="white"/>
</clipPath>
</defs>
</svg>
