<svg width="20" height="20" viewBox="0 0 20 20" fill="none" xmlns="http://www.w3.org/2000/svg">
<path fill-rule="evenodd" clip-rule="evenodd" d="M5.83337 17.4999C5.83337 16.5794 6.57957 15.8333 7.50004 15.8333C8.42051 15.8333 9.16671 16.5794 9.16671 17.4999C9.16671 18.4204 8.42051 19.1666 7.50004 19.1666C6.57957 19.1666 5.83337 18.4204 5.83337 17.4999Z" fill="white"/>
<path fill-rule="evenodd" clip-rule="evenodd" d="M15 17.4999C15 16.5794 15.7462 15.8333 16.6667 15.8333C17.5871 15.8333 18.3333 16.5794 18.3333 17.4999C18.3333 18.4204 17.5871 19.1666 16.6667 19.1666C15.7462 19.1666 15 18.4204 15 17.4999Z" fill="white"/>
<path fill-rule="evenodd" clip-rule="evenodd" d="M0 0.833315C0 0.373088 0.373096 0 0.833333 0H4.16666C4.56385 0 4.90584 0.280315 4.98379 0.669771L5.68369 4.16657H19.1667C19.415 4.16657 19.6504 4.27735 19.8087 4.4687C19.967 4.66005 20.0318 4.91204 19.9852 5.15599L18.6507 12.1538C18.5364 12.7292 18.2233 13.2462 17.7663 13.6141C17.3115 13.9802 16.743 14.1755 16.1595 14.1664H8.07387C7.49031 14.1755 6.92183 13.9802 6.46706 13.6141C6.0102 13.2463 5.69719 12.7297 5.58277 12.1545C5.58272 12.1542 5.58282 12.1547 5.58277 12.1545L4.19066 5.19922C4.18501 5.17621 4.18032 5.15283 4.17662 5.12912L3.48359 1.66663H0.833333C0.373096 1.66663 0 1.29354 0 0.833315ZM6.01727 5.83321L7.21736 11.8291C7.25546 12.0209 7.35982 12.1932 7.51217 12.3158C7.66452 12.4385 7.85515 12.5036 8.0507 12.4999L8.06666 12.4997H16.1667L16.1826 12.4999C16.3782 12.5036 16.5688 12.4385 16.7211 12.3158C16.8728 12.1938 16.9769 12.0225 17.0154 11.8317L18.1594 5.83321H6.01727Z" fill="white"/>
</svg>
