<svg width="16" height="16" viewBox="0 0 16 16" fill="none" xmlns="http://www.w3.org/2000/svg">
<g clip-path="url(#clip0_1788_15987)">
<path fill-rule="evenodd" clip-rule="evenodd" d="M6.72408 1.06192C6.83109 0.821171 7.06983 0.666016 7.33329 0.666016C8.04054 0.666016 8.71881 0.946967 9.21891 1.44706C9.71901 1.94716 9.99996 2.62544 9.99996 3.33268V5.33268H13.1032C13.3917 5.33001 13.6774 5.38979 13.9406 5.50794C14.2052 5.62666 14.4407 5.80146 14.6309 6.02024C14.8212 6.23902 14.9616 6.49655 15.0424 6.77498C15.1233 7.05341 15.1426 7.34608 15.0991 7.63272L14.1791 13.6326C14.1791 13.6328 14.1791 13.6325 14.1791 13.6326C14.1067 14.1093 13.8644 14.5444 13.497 14.8566C13.1305 15.1682 12.6641 15.3371 12.1832 15.3327H2.66663C2.13619 15.3327 1.62748 15.122 1.25241 14.7469C0.87734 14.3718 0.666626 13.8631 0.666626 13.3327V8.66602C0.666626 8.13558 0.87734 7.62687 1.25241 7.2518C1.62748 6.87673 2.13619 6.66602 2.66663 6.66602H4.23338L6.72408 1.06192ZM3.99996 7.99935H2.66663C2.48982 7.99935 2.32025 8.06959 2.19522 8.19461C2.0702 8.31963 1.99996 8.4892 1.99996 8.66602V13.3327C1.99996 13.5095 2.0702 13.6791 2.19522 13.8041C2.32025 13.9291 2.48982 13.9993 2.66663 13.9993H3.99996V7.99935ZM5.33329 13.9993H12.1942C12.3549 14.0012 12.511 13.9449 12.6335 13.8407C12.756 13.7366 12.8367 13.5917 12.8608 13.4327L13.7808 7.43264C13.7808 7.43273 13.7809 7.43255 13.7808 7.43264C13.7953 7.33717 13.7889 7.23945 13.762 7.14672C13.735 7.05391 13.6882 6.96807 13.6248 6.89514C13.5614 6.82222 13.4829 6.76395 13.3947 6.72438C13.3065 6.68481 13.2108 6.66488 13.1142 6.66597L13.1066 6.66606L9.33329 6.66602C8.9651 6.66602 8.66663 6.36754 8.66663 5.99935V3.33268C8.66663 2.97906 8.52615 2.63992 8.2761 2.38987C8.12421 2.23798 7.93943 2.12652 7.73851 2.06241L5.33329 7.47416V13.9993Z" fill="white"/>
</g>
<defs>
<clipPath id="clip0_1788_15987">
<rect width="16" height="16" fill="white"/>
</clipPath>
</defs>
</svg>
